<mxfile host="app.diagrams.net" modified="2020-09-17T00:31:27.794Z" agent="5.0 (Macintosh; Intel Mac OS X 10_15_6) AppleWebKit/537.36 (KHTML, like Gecko) Chrome/85.0.4183.102 Safari/537.36" etag="SiFitHQX05N5BytWNiu5" version="13.4.4" type="github">
  <diagram id="2txRi4Y_g-nlTiY-pxwm" name="Page-1">
    <mxGraphModel dx="997" dy="773" grid="1" gridSize="10" guides="1" tooltips="1" connect="1" arrows="1" fold="1" page="1" pageScale="1" pageWidth="827" pageHeight="1169" math="0" shadow="0">
      <root>
        <mxCell id="0" />
        <mxCell id="1" parent="0" />
        <mxCell id="WYVDGU74IOK8SxGDw1i1-1" value="Member" style="swimlane;fontStyle=0;childLayout=stackLayout;horizontal=1;startSize=26;horizontalStack=0;resizeParent=1;resizeParentMax=0;resizeLast=0;collapsible=1;marginBottom=0;align=center;fontSize=14;" vertex="1" parent="1">
          <mxGeometry x="40" y="283" width="160" height="116" as="geometry" />
        </mxCell>
        <mxCell id="WYVDGU74IOK8SxGDw1i1-2" value="id : Long" style="text;strokeColor=none;fillColor=none;spacingLeft=4;spacingRight=4;overflow=hidden;rotatable=0;points=[[0,0.5],[1,0.5]];portConstraint=eastwest;fontSize=12;" vertex="1" parent="WYVDGU74IOK8SxGDw1i1-1">
          <mxGeometry y="26" width="160" height="30" as="geometry" />
        </mxCell>
        <mxCell id="WYVDGU74IOK8SxGDw1i1-3" value="name : String" style="text;strokeColor=none;fillColor=none;spacingLeft=4;spacingRight=4;overflow=hidden;rotatable=0;points=[[0,0.5],[1,0.5]];portConstraint=eastwest;fontSize=12;" vertex="1" parent="WYVDGU74IOK8SxGDw1i1-1">
          <mxGeometry y="56" width="160" height="30" as="geometry" />
        </mxCell>
        <mxCell id="WYVDGU74IOK8SxGDw1i1-4" value="phone : String" style="text;strokeColor=none;fillColor=none;spacingLeft=4;spacingRight=4;overflow=hidden;rotatable=0;points=[[0,0.5],[1,0.5]];portConstraint=eastwest;fontSize=12;" vertex="1" parent="WYVDGU74IOK8SxGDw1i1-1">
          <mxGeometry y="86" width="160" height="30" as="geometry" />
        </mxCell>
        <mxCell id="WYVDGU74IOK8SxGDw1i1-16" value="" style="line;strokeWidth=2;direction=south;html=1;" vertex="1" parent="1">
          <mxGeometry x="115" y="400" width="10" height="80" as="geometry" />
        </mxCell>
        <mxCell id="WYVDGU74IOK8SxGDw1i1-17" value="1" style="text;html=1;strokeColor=none;fillColor=none;align=center;verticalAlign=middle;whiteSpace=wrap;rounded=0;" vertex="1" parent="1">
          <mxGeometry x="120" y="400" width="40" height="20" as="geometry" />
        </mxCell>
        <mxCell id="WYVDGU74IOK8SxGDw1i1-18" value="*" style="text;html=1;strokeColor=none;fillColor=none;align=center;verticalAlign=middle;whiteSpace=wrap;rounded=0;" vertex="1" parent="1">
          <mxGeometry x="125" y="460" width="30" height="20" as="geometry" />
        </mxCell>
        <mxCell id="WYVDGU74IOK8SxGDw1i1-10" value="Registration" style="swimlane;fontStyle=0;childLayout=stackLayout;horizontal=1;startSize=26;horizontalStack=0;resizeParent=1;resizeParentMax=0;resizeLast=0;collapsible=1;marginBottom=0;align=center;fontSize=14;" vertex="1" parent="1">
          <mxGeometry x="40" y="480" width="160" height="206" as="geometry" />
        </mxCell>
        <mxCell id="WYVDGU74IOK8SxGDw1i1-11" value="id : Long" style="text;strokeColor=none;fillColor=none;spacingLeft=4;spacingRight=4;overflow=hidden;rotatable=0;points=[[0,0.5],[1,0.5]];portConstraint=eastwest;fontSize=12;" vertex="1" parent="WYVDGU74IOK8SxGDw1i1-10">
          <mxGeometry y="26" width="160" height="30" as="geometry" />
        </mxCell>
        <mxCell id="WYVDGU74IOK8SxGDw1i1-49" value="owner : Member" style="text;strokeColor=none;fillColor=none;spacingLeft=4;spacingRight=4;overflow=hidden;rotatable=0;points=[[0,0.5],[1,0.5]];portConstraint=eastwest;fontSize=12;" vertex="1" parent="WYVDGU74IOK8SxGDw1i1-10">
          <mxGeometry y="56" width="160" height="30" as="geometry" />
        </mxCell>
        <mxCell id="WYVDGU74IOK8SxGDw1i1-12" value="registrationWorks : List" style="text;strokeColor=none;fillColor=none;spacingLeft=4;spacingRight=4;overflow=hidden;rotatable=0;points=[[0,0.5],[1,0.5]];portConstraint=eastwest;fontSize=12;" vertex="1" parent="WYVDGU74IOK8SxGDw1i1-10">
          <mxGeometry y="86" width="160" height="30" as="geometry" />
        </mxCell>
        <mxCell id="WYVDGU74IOK8SxGDw1i1-50" value="registrationStatus : RegistrationStatus" style="text;strokeColor=none;fillColor=none;spacingLeft=4;spacingRight=4;overflow=hidden;rotatable=0;points=[[0,0.5],[1,0.5]];portConstraint=eastwest;fontSize=12;" vertex="1" parent="WYVDGU74IOK8SxGDw1i1-10">
          <mxGeometry y="116" width="160" height="30" as="geometry" />
        </mxCell>
        <mxCell id="WYVDGU74IOK8SxGDw1i1-13" value="regDate : Date" style="text;strokeColor=none;fillColor=none;spacingLeft=4;spacingRight=4;overflow=hidden;rotatable=0;points=[[0,0.5],[1,0.5]];portConstraint=eastwest;fontSize=12;" vertex="1" parent="WYVDGU74IOK8SxGDw1i1-10">
          <mxGeometry y="146" width="160" height="30" as="geometry" />
        </mxCell>
        <mxCell id="WYVDGU74IOK8SxGDw1i1-53" value="admin : Member" style="text;strokeColor=none;fillColor=none;spacingLeft=4;spacingRight=4;overflow=hidden;rotatable=0;points=[[0,0.5],[1,0.5]];portConstraint=eastwest;fontSize=12;" vertex="1" parent="WYVDGU74IOK8SxGDw1i1-10">
          <mxGeometry y="176" width="160" height="30" as="geometry" />
        </mxCell>
        <mxCell id="WYVDGU74IOK8SxGDw1i1-24" value="" style="line;strokeWidth=2;html=1;" vertex="1" parent="1">
          <mxGeometry x="200" y="540" width="120" height="10" as="geometry" />
        </mxCell>
        <mxCell id="WYVDGU74IOK8SxGDw1i1-25" value="회원, 작업, 등록 간의 관계&lt;br&gt;1. 회원은 여러 작업을 등록할 수 있다.&amp;nbsp;&lt;br&gt;2. 한 번 등록할때 여러 작업을 등록 할 수 있다.&lt;br&gt;3. 따라서 등록과 작업은 다대다 관계이다." style="text;html=1;strokeColor=none;fillColor=none;align=center;verticalAlign=middle;whiteSpace=wrap;rounded=0;" vertex="1" parent="1">
          <mxGeometry x="240" y="90" width="430" height="20" as="geometry" />
        </mxCell>
        <mxCell id="WYVDGU74IOK8SxGDw1i1-26" value="관리자, 작업, 회원 간의 관계&lt;br&gt;관리자는 회원 대신에 작업을 등록해 줄 수 있다.&lt;br&gt;관리자는 작업을 등록할 수 있다.&lt;br&gt;1. 관리자는 여러 작업을 등록할 수 있다.&lt;br&gt;2. 관리자는 한번 등록할 때 여러 작업을 등록할 수 있다.&lt;br&gt;3. 관리자가 작업 등록시 등록자를 지정할 수 있다." style="text;html=1;strokeColor=none;fillColor=none;align=center;verticalAlign=middle;whiteSpace=wrap;rounded=0;" vertex="1" parent="1">
          <mxGeometry x="340" y="160" width="280" height="60" as="geometry" />
        </mxCell>
        <mxCell id="WYVDGU74IOK8SxGDw1i1-27" value="RegistrationWork" style="swimlane;fontStyle=0;childLayout=stackLayout;horizontal=1;startSize=26;horizontalStack=0;resizeParent=1;resizeParentMax=0;resizeLast=0;collapsible=1;marginBottom=0;align=center;fontSize=14;" vertex="1" parent="1">
          <mxGeometry x="320" y="480" width="160" height="116" as="geometry" />
        </mxCell>
        <mxCell id="WYVDGU74IOK8SxGDw1i1-28" value="id : Long" style="text;strokeColor=none;fillColor=none;spacingLeft=4;spacingRight=4;overflow=hidden;rotatable=0;points=[[0,0.5],[1,0.5]];portConstraint=eastwest;fontSize=12;" vertex="1" parent="WYVDGU74IOK8SxGDw1i1-27">
          <mxGeometry y="26" width="160" height="30" as="geometry" />
        </mxCell>
        <mxCell id="WYVDGU74IOK8SxGDw1i1-29" value="registration : Registration" style="text;strokeColor=none;fillColor=none;spacingLeft=4;spacingRight=4;overflow=hidden;rotatable=0;points=[[0,0.5],[1,0.5]];portConstraint=eastwest;fontSize=12;" vertex="1" parent="WYVDGU74IOK8SxGDw1i1-27">
          <mxGeometry y="56" width="160" height="30" as="geometry" />
        </mxCell>
        <mxCell id="WYVDGU74IOK8SxGDw1i1-51" value="work : Work" style="text;strokeColor=none;fillColor=none;spacingLeft=4;spacingRight=4;overflow=hidden;rotatable=0;points=[[0,0.5],[1,0.5]];portConstraint=eastwest;fontSize=12;" vertex="1" parent="WYVDGU74IOK8SxGDw1i1-27">
          <mxGeometry y="86" width="160" height="30" as="geometry" />
        </mxCell>
        <mxCell id="WYVDGU74IOK8SxGDw1i1-31" value="작업은 고유하다." style="text;html=1;strokeColor=none;fillColor=none;align=center;verticalAlign=middle;whiteSpace=wrap;rounded=0;" vertex="1" parent="1">
          <mxGeometry x="360" y="263" width="200" height="20" as="geometry" />
        </mxCell>
        <mxCell id="WYVDGU74IOK8SxGDw1i1-32" value="1" style="text;html=1;strokeColor=none;fillColor=none;align=center;verticalAlign=middle;whiteSpace=wrap;rounded=0;" vertex="1" parent="1">
          <mxGeometry x="200" y="520" width="40" height="20" as="geometry" />
        </mxCell>
        <mxCell id="WYVDGU74IOK8SxGDw1i1-33" value="*" style="text;html=1;strokeColor=none;fillColor=none;align=center;verticalAlign=middle;whiteSpace=wrap;rounded=0;" vertex="1" parent="1">
          <mxGeometry x="290" y="520" width="30" height="20" as="geometry" />
        </mxCell>
        <mxCell id="WYVDGU74IOK8SxGDw1i1-5" value="Work" style="swimlane;fontStyle=0;childLayout=stackLayout;horizontal=1;startSize=26;horizontalStack=0;resizeParent=1;resizeParentMax=0;resizeLast=0;collapsible=1;marginBottom=0;align=center;fontSize=14;" vertex="1" parent="1">
          <mxGeometry x="600" y="480" width="160" height="116" as="geometry" />
        </mxCell>
        <mxCell id="WYVDGU74IOK8SxGDw1i1-6" value="id : Long" style="text;strokeColor=none;fillColor=none;spacingLeft=4;spacingRight=4;overflow=hidden;rotatable=0;points=[[0,0.5],[1,0.5]];portConstraint=eastwest;fontSize=12;" vertex="1" parent="WYVDGU74IOK8SxGDw1i1-5">
          <mxGeometry y="26" width="160" height="30" as="geometry" />
        </mxCell>
        <mxCell id="WYVDGU74IOK8SxGDw1i1-7" value="price : Integer" style="text;strokeColor=none;fillColor=none;spacingLeft=4;spacingRight=4;overflow=hidden;rotatable=0;points=[[0,0.5],[1,0.5]];portConstraint=eastwest;fontSize=12;" vertex="1" parent="WYVDGU74IOK8SxGDw1i1-5">
          <mxGeometry y="56" width="160" height="30" as="geometry" />
        </mxCell>
        <mxCell id="WYVDGU74IOK8SxGDw1i1-8" value="fee : Integer" style="text;strokeColor=none;fillColor=none;spacingLeft=4;spacingRight=4;overflow=hidden;rotatable=0;points=[[0,0.5],[1,0.5]];portConstraint=eastwest;fontSize=12;" vertex="1" parent="WYVDGU74IOK8SxGDw1i1-5">
          <mxGeometry y="86" width="160" height="30" as="geometry" />
        </mxCell>
        <mxCell id="WYVDGU74IOK8SxGDw1i1-36" value="" style="line;strokeWidth=2;html=1;" vertex="1" parent="1">
          <mxGeometry x="480" y="540" width="120" height="10" as="geometry" />
        </mxCell>
        <mxCell id="WYVDGU74IOK8SxGDw1i1-37" value="*" style="text;html=1;strokeColor=none;fillColor=none;align=center;verticalAlign=middle;whiteSpace=wrap;rounded=0;" vertex="1" parent="1">
          <mxGeometry x="480" y="520" width="30" height="20" as="geometry" />
        </mxCell>
        <mxCell id="WYVDGU74IOK8SxGDw1i1-38" value="1" style="text;html=1;strokeColor=none;fillColor=none;align=center;verticalAlign=middle;whiteSpace=wrap;rounded=0;" vertex="1" parent="1">
          <mxGeometry x="560" y="520" width="40" height="20" as="geometry" />
        </mxCell>
        <mxCell id="WYVDGU74IOK8SxGDw1i1-52" value="" style="endArrow=none;dashed=1;html=1;dashPattern=1 3;strokeWidth=2;entryX=0.825;entryY=1.067;entryDx=0;entryDy=0;entryPerimeter=0;exitX=0.819;exitY=-0.006;exitDx=0;exitDy=0;exitPerimeter=0;" edge="1" parent="1" source="WYVDGU74IOK8SxGDw1i1-10" target="WYVDGU74IOK8SxGDw1i1-4">
          <mxGeometry width="50" height="50" relative="1" as="geometry">
            <mxPoint x="500" y="640" as="sourcePoint" />
            <mxPoint x="550" y="590" as="targetPoint" />
          </mxGeometry>
        </mxCell>
        <mxCell id="WYVDGU74IOK8SxGDw1i1-54" value="1" style="text;html=1;strokeColor=none;fillColor=none;align=center;verticalAlign=middle;whiteSpace=wrap;rounded=0;" vertex="1" parent="1">
          <mxGeometry x="170" y="400" width="40" height="20" as="geometry" />
        </mxCell>
        <mxCell id="WYVDGU74IOK8SxGDw1i1-55" value="*" style="text;html=1;strokeColor=none;fillColor=none;align=center;verticalAlign=middle;whiteSpace=wrap;rounded=0;" vertex="1" parent="1">
          <mxGeometry x="170" y="460" width="30" height="20" as="geometry" />
        </mxCell>
        <mxCell id="WYVDGU74IOK8SxGDw1i1-44" value="Admin" style="swimlane;fontStyle=0;childLayout=stackLayout;horizontal=1;startSize=26;horizontalStack=0;resizeParent=1;resizeParentMax=0;resizeLast=0;collapsible=1;marginBottom=0;align=center;fontSize=14;" vertex="1" parent="1">
          <mxGeometry x="40" y="750" width="160" height="146" as="geometry" />
        </mxCell>
        <mxCell id="WYVDGU74IOK8SxGDw1i1-45" value="id : Long" style="text;strokeColor=none;fillColor=none;spacingLeft=4;spacingRight=4;overflow=hidden;rotatable=0;points=[[0,0.5],[1,0.5]];portConstraint=eastwest;fontSize=12;" vertex="1" parent="WYVDGU74IOK8SxGDw1i1-44">
          <mxGeometry y="26" width="160" height="30" as="geometry" />
        </mxCell>
        <mxCell id="WYVDGU74IOK8SxGDw1i1-46" value="name : String" style="text;strokeColor=none;fillColor=none;spacingLeft=4;spacingRight=4;overflow=hidden;rotatable=0;points=[[0,0.5],[1,0.5]];portConstraint=eastwest;fontSize=12;" vertex="1" parent="WYVDGU74IOK8SxGDw1i1-44">
          <mxGeometry y="56" width="160" height="30" as="geometry" />
        </mxCell>
        <mxCell id="WYVDGU74IOK8SxGDw1i1-47" value="id : String" style="text;strokeColor=none;fillColor=none;spacingLeft=4;spacingRight=4;overflow=hidden;rotatable=0;points=[[0,0.5],[1,0.5]];portConstraint=eastwest;fontSize=12;" vertex="1" parent="WYVDGU74IOK8SxGDw1i1-44">
          <mxGeometry y="86" width="160" height="30" as="geometry" />
        </mxCell>
        <mxCell id="WYVDGU74IOK8SxGDw1i1-48" value="password : String" style="text;strokeColor=none;fillColor=none;spacingLeft=4;spacingRight=4;overflow=hidden;rotatable=0;points=[[0,0.5],[1,0.5]];portConstraint=eastwest;fontSize=12;" vertex="1" parent="WYVDGU74IOK8SxGDw1i1-44">
          <mxGeometry y="116" width="160" height="30" as="geometry" />
        </mxCell>
        <mxCell id="WYVDGU74IOK8SxGDw1i1-56" value="Dispatch" style="swimlane;fontStyle=0;childLayout=stackLayout;horizontal=1;startSize=26;horizontalStack=0;resizeParent=1;resizeParentMax=0;resizeLast=0;collapsible=1;marginBottom=0;align=center;fontSize=14;" vertex="1" parent="1">
          <mxGeometry x="280" y="283" width="160" height="176" as="geometry" />
        </mxCell>
        <mxCell id="WYVDGU74IOK8SxGDw1i1-57" value="id : Long" style="text;strokeColor=none;fillColor=none;spacingLeft=4;spacingRight=4;overflow=hidden;rotatable=0;points=[[0,0.5],[1,0.5]];portConstraint=eastwest;fontSize=12;" vertex="1" parent="WYVDGU74IOK8SxGDw1i1-56">
          <mxGeometry y="26" width="160" height="30" as="geometry" />
        </mxCell>
        <mxCell id="WYVDGU74IOK8SxGDw1i1-58" value="member : Member" style="text;strokeColor=none;fillColor=none;spacingLeft=4;spacingRight=4;overflow=hidden;rotatable=0;points=[[0,0.5],[1,0.5]];portConstraint=eastwest;fontSize=12;" vertex="1" parent="WYVDGU74IOK8SxGDw1i1-56">
          <mxGeometry y="56" width="160" height="30" as="geometry" />
        </mxCell>
        <mxCell id="WYVDGU74IOK8SxGDw1i1-77" value="dispatchWorks : List" style="text;strokeColor=none;fillColor=none;spacingLeft=4;spacingRight=4;overflow=hidden;rotatable=0;points=[[0,0.5],[1,0.5]];portConstraint=eastwest;fontSize=12;" vertex="1" parent="WYVDGU74IOK8SxGDw1i1-56">
          <mxGeometry y="86" width="160" height="30" as="geometry" />
        </mxCell>
        <mxCell id="WYVDGU74IOK8SxGDw1i1-69" value="dispatchStatus: DispatchStatus" style="text;strokeColor=none;fillColor=none;spacingLeft=4;spacingRight=4;overflow=hidden;rotatable=0;points=[[0,0.5],[1,0.5]];portConstraint=eastwest;fontSize=12;" vertex="1" parent="WYVDGU74IOK8SxGDw1i1-56">
          <mxGeometry y="116" width="160" height="30" as="geometry" />
        </mxCell>
        <mxCell id="WYVDGU74IOK8SxGDw1i1-60" value="disDate : Date" style="text;strokeColor=none;fillColor=none;spacingLeft=4;spacingRight=4;overflow=hidden;rotatable=0;points=[[0,0.5],[1,0.5]];portConstraint=eastwest;fontSize=12;" vertex="1" parent="WYVDGU74IOK8SxGDw1i1-56">
          <mxGeometry y="146" width="160" height="30" as="geometry" />
        </mxCell>
        <mxCell id="WYVDGU74IOK8SxGDw1i1-61" value="" style="line;strokeWidth=2;html=1;" vertex="1" parent="1">
          <mxGeometry x="200" y="351" width="80" height="10" as="geometry" />
        </mxCell>
        <mxCell id="WYVDGU74IOK8SxGDw1i1-62" value="1" style="text;html=1;strokeColor=none;fillColor=none;align=center;verticalAlign=middle;whiteSpace=wrap;rounded=0;" vertex="1" parent="1">
          <mxGeometry x="200" y="331" width="40" height="20" as="geometry" />
        </mxCell>
        <mxCell id="WYVDGU74IOK8SxGDw1i1-63" value="*" style="text;html=1;strokeColor=none;fillColor=none;align=center;verticalAlign=middle;whiteSpace=wrap;rounded=0;" vertex="1" parent="1">
          <mxGeometry x="250" y="331" width="30" height="20" as="geometry" />
        </mxCell>
        <mxCell id="WYVDGU74IOK8SxGDw1i1-67" value="1" style="text;html=1;strokeColor=none;fillColor=none;align=center;verticalAlign=middle;whiteSpace=wrap;rounded=0;" vertex="1" parent="1">
          <mxGeometry x="440" y="340" width="40" height="20" as="geometry" />
        </mxCell>
        <mxCell id="WYVDGU74IOK8SxGDw1i1-68" value="1" style="text;html=1;strokeColor=none;fillColor=none;align=center;verticalAlign=middle;whiteSpace=wrap;rounded=0;" vertex="1" parent="1">
          <mxGeometry x="720" y="460" width="40" height="20" as="geometry" />
        </mxCell>
        <mxCell id="WYVDGU74IOK8SxGDw1i1-70" value="DispatchWork" style="swimlane;fontStyle=0;childLayout=stackLayout;horizontal=1;startSize=26;horizontalStack=0;resizeParent=1;resizeParentMax=0;resizeLast=0;collapsible=1;marginBottom=0;align=center;fontSize=14;" vertex="1" parent="1">
          <mxGeometry x="520" y="280" width="160" height="176" as="geometry" />
        </mxCell>
        <mxCell id="WYVDGU74IOK8SxGDw1i1-71" value="id : Long" style="text;strokeColor=none;fillColor=none;spacingLeft=4;spacingRight=4;overflow=hidden;rotatable=0;points=[[0,0.5],[1,0.5]];portConstraint=eastwest;fontSize=12;" vertex="1" parent="WYVDGU74IOK8SxGDw1i1-70">
          <mxGeometry y="26" width="160" height="30" as="geometry" />
        </mxCell>
        <mxCell id="WYVDGU74IOK8SxGDw1i1-72" value="dispatch : Dispatch" style="text;strokeColor=none;fillColor=none;spacingLeft=4;spacingRight=4;overflow=hidden;rotatable=0;points=[[0,0.5],[1,0.5]];portConstraint=eastwest;fontSize=12;" vertex="1" parent="WYVDGU74IOK8SxGDw1i1-70">
          <mxGeometry y="56" width="160" height="30" as="geometry" />
        </mxCell>
        <mxCell id="WYVDGU74IOK8SxGDw1i1-73" value="work : Work" style="text;strokeColor=none;fillColor=none;spacingLeft=4;spacingRight=4;overflow=hidden;rotatable=0;points=[[0,0.5],[1,0.5]];portConstraint=eastwest;fontSize=12;" vertex="1" parent="WYVDGU74IOK8SxGDw1i1-70">
          <mxGeometry y="86" width="160" height="30" as="geometry" />
        </mxCell>
        <mxCell id="WYVDGU74IOK8SxGDw1i1-86" value="dispatchPrice : Integer" style="text;strokeColor=none;fillColor=none;spacingLeft=4;spacingRight=4;overflow=hidden;rotatable=0;points=[[0,0.5],[1,0.5]];portConstraint=eastwest;fontSize=12;" vertex="1" parent="WYVDGU74IOK8SxGDw1i1-70">
          <mxGeometry y="116" width="160" height="30" as="geometry" />
        </mxCell>
        <mxCell id="WYVDGU74IOK8SxGDw1i1-80" value="dispatchFee : Integer" style="text;strokeColor=none;fillColor=none;spacingLeft=4;spacingRight=4;overflow=hidden;rotatable=0;points=[[0,0.5],[1,0.5]];portConstraint=eastwest;fontSize=12;" vertex="1" parent="WYVDGU74IOK8SxGDw1i1-70">
          <mxGeometry y="146" width="160" height="30" as="geometry" />
        </mxCell>
        <mxCell id="WYVDGU74IOK8SxGDw1i1-74" value="" style="line;strokeWidth=2;html=1;" vertex="1" parent="1">
          <mxGeometry x="440" y="351" width="80" height="10" as="geometry" />
        </mxCell>
        <mxCell id="WYVDGU74IOK8SxGDw1i1-75" value="*" style="text;html=1;strokeColor=none;fillColor=none;align=center;verticalAlign=middle;whiteSpace=wrap;rounded=0;" vertex="1" parent="1">
          <mxGeometry x="490" y="340" width="30" height="20" as="geometry" />
        </mxCell>
        <mxCell id="WYVDGU74IOK8SxGDw1i1-76" value="*" style="text;html=1;strokeColor=none;fillColor=none;align=center;verticalAlign=middle;whiteSpace=wrap;rounded=0;" vertex="1" parent="1">
          <mxGeometry x="685" y="340" width="30" height="20" as="geometry" />
        </mxCell>
        <mxCell id="WYVDGU74IOK8SxGDw1i1-78" value="" style="shape=partialRectangle;whiteSpace=wrap;html=1;bottom=0;right=0;fillColor=none;rotation=90;" vertex="1" parent="1">
          <mxGeometry x="640" y="399" width="120" height="41" as="geometry" />
        </mxCell>
        <mxCell id="WYVDGU74IOK8SxGDw1i1-81" value="DispatchWorkPayment" style="swimlane;fontStyle=0;childLayout=stackLayout;horizontal=1;startSize=26;horizontalStack=0;resizeParent=1;resizeParentMax=0;resizeLast=0;collapsible=1;marginBottom=0;align=center;fontSize=14;" vertex="1" parent="1">
          <mxGeometry x="630" y="80" width="160" height="146" as="geometry" />
        </mxCell>
        <mxCell id="WYVDGU74IOK8SxGDw1i1-82" value="id : Long" style="text;strokeColor=none;fillColor=none;spacingLeft=4;spacingRight=4;overflow=hidden;rotatable=0;points=[[0,0.5],[1,0.5]];portConstraint=eastwest;fontSize=12;" vertex="1" parent="WYVDGU74IOK8SxGDw1i1-81">
          <mxGeometry y="26" width="160" height="30" as="geometry" />
        </mxCell>
        <mxCell id="WYVDGU74IOK8SxGDw1i1-83" value="dispatchWork : DispatchWork" style="text;strokeColor=none;fillColor=none;spacingLeft=4;spacingRight=4;overflow=hidden;rotatable=0;points=[[0,0.5],[1,0.5]];portConstraint=eastwest;fontSize=12;" vertex="1" parent="WYVDGU74IOK8SxGDw1i1-81">
          <mxGeometry y="56" width="160" height="30" as="geometry" />
        </mxCell>
        <mxCell id="WYVDGU74IOK8SxGDw1i1-84" value="work : Work" style="text;strokeColor=none;fillColor=none;spacingLeft=4;spacingRight=4;overflow=hidden;rotatable=0;points=[[0,0.5],[1,0.5]];portConstraint=eastwest;fontSize=12;" vertex="1" parent="WYVDGU74IOK8SxGDw1i1-81">
          <mxGeometry y="86" width="160" height="30" as="geometry" />
        </mxCell>
        <mxCell id="WYVDGU74IOK8SxGDw1i1-85" value="dispatchPrice : Integer" style="text;strokeColor=none;fillColor=none;spacingLeft=4;spacingRight=4;overflow=hidden;rotatable=0;points=[[0,0.5],[1,0.5]];portConstraint=eastwest;fontSize=12;" vertex="1" parent="WYVDGU74IOK8SxGDw1i1-81">
          <mxGeometry y="116" width="160" height="30" as="geometry" />
        </mxCell>
      </root>
    </mxGraphModel>
  </diagram>
</mxfile>
